<svg width="76" height="76" viewBox="0 0 76 76" fill="none" xmlns="http://www.w3.org/2000/svg">
<path d="M38 -5.00679e-06L52.2 14.1L50.7 15.6L74 39.1V56H76V76H56V56H58V45.7L39.4 27L38.1 28.3L38 28.2L37.9 28.3L38 28.1L36.7 26.9L18 45.7V56H20V76H7.45058e-08V56H2V39.1L25.3 15.6L23.9 14.2L38 -5.00679e-06ZM38 8.5L32.4 14.2L38.1 19.8L43.7 14.1L38 8.5ZM29.6 19.8L8 41.6V56H12V43.3L32.4 22.6L29.6 19.8ZM46.5 19.9L43.6 22.7L64 43.3V56H68V41.6L46.5 19.9ZM38 44C43.5 44 48 48.5 48 54C48 59.5 43.5 64 38 64C32.5 64 28 59.5 28 54C28 48.5 32.5 44 38 44ZM38 50C35.8 50 34 51.8 34 54C34 56.2 35.8 58 38 58C40.2 58 42 56.2 42 54C42 51.8 40.2 50 38 50ZM6 62V70H14V62H6ZM62 62V70H70V62H62Z" fill="url(#paint0_linear_7584_105)"/>
<defs>
<linearGradient id="paint0_linear_7584_105" x1="-5" y1="37.5" x2="82" y2="37.5" gradientUnits="userSpaceOnUse">
<stop stop-color="#E2E2E2"/>
<stop offset="1" stop-color="white"/>
</linearGradient>
</defs>
</svg>
