<svg width="393" height="77" viewBox="0 0 393 77" fill="none" xmlns="http://www.w3.org/2000/svg">
<path d="M7.45058e-08 -5.126e-05H20V1.99995H32C51.9 1.99995 68 18.0999 68 37.9999C68 57.8999 51.9 74 32 74H20V76H7.45058e-08V56H2V19.9999H7.45058e-08V-5.126e-05ZM6 5.99995V13.9999H14V5.99995H6ZM20 7.99995V11.9999H32C46.4 11.9999 58 23.5999 58 37.9999C58 52.4 46.4 64 32 64H20V68H32C48.6 68 62 54.6 62 37.9999C62 21.3999 48.6 7.99995 32 7.99995H20ZM20 17.9999V19.9999H18V56H20V58H32C43 58 52 48.9999 52 37.9999C52 26.9999 43 17.9999 32 17.9999H20ZM8 19.9999V56H12V19.9999H8ZM6 62V70H14V62H6ZM78.0273 0.199946H98.0273V2.19995H114.027C126.127 2.19995 136.027 12.0999 136.027 24.1999C136.027 27.6999 134.527 32.8999 132.727 35.7999C137.227 39.7999 140.027 45.7 140.027 52.2V56.2H142.027V76.2H122.027V56.2H124.027V52.2C124.027 48.9 121.327 46.1999 118.027 46.1999H96.0273V56.2H98.0273V76.2H78.0273V56.2H80.0273V20.2H78.0273V0.199946ZM84.0273 6.19995V14.2H92.0273V6.19995H84.0273ZM98.0273 8.19995V12.1999H114.027C120.627 12.1999 126.027 17.5999 126.027 24.1999C126.027 30.7999 120.627 36.2 114.027 36.2H96.0273V40.1999H114.027C122.827 40.1999 130.027 33 130.027 24.1999C130.027 15.3999 122.827 8.19995 114.027 8.19995H98.0273ZM98.0273 18.1999V20.2H96.0273V30.2H114.027C117.327 30.2 120.027 27.4999 120.027 24.1999C120.027 20.8999 117.327 18.1999 114.027 18.1999H98.0273ZM86.0273 20.2V56.2H90.0273V20.2H86.0273ZM128.827 40.4C128.027 41.1999 126.527 42.2999 125.627 42.9C128.327 45.0999 130.027 48.3999 130.027 52.2V56.2H134.027V52.2C134.027 47.5 132.027 43.2999 128.827 40.4ZM84.0273 62.2V70.2H92.0273V62.2H84.0273ZM128.027 62.2V70.2H136.027V62.2H128.027ZM190.051 0.199946L204.251 14.2999L202.751 15.7999L226.051 39.2999V56.2H228.051V76.2H208.051V56.2H210.051V45.9L191.451 27.2L190.151 28.4999L190.051 28.3999L189.951 28.4999L190.051 28.2999L188.751 27.0999L170.051 45.9V56.2H172.051V76.2H152.051V56.2H154.051V39.2999L177.351 15.7999L175.951 14.3999L190.051 0.199946ZM190.051 8.69995L184.451 14.3999L190.151 19.9999L195.751 14.2999L190.051 8.69995ZM181.651 19.9999L160.051 41.8V56.2H164.051V43.4999L184.451 22.7999L181.651 19.9999ZM198.551 20.0999L195.651 22.8999L216.051 43.4999V56.2H220.051V41.8L198.551 20.0999ZM190.051 44.1999C195.551 44.1999 200.051 48.7 200.051 54.1999C200.051 59.7 195.551 64.2 190.051 64.2C184.551 64.2 180.051 59.7 180.051 54.1999C180.051 48.7 184.551 44.1999 190.051 44.1999ZM190.051 50.1999C187.851 50.1999 186.051 51.9999 186.051 54.1999C186.051 56.3999 187.851 58.2 190.051 58.2C192.251 58.2 194.051 56.3999 194.051 54.1999C194.051 51.9999 192.251 50.1999 190.051 50.1999ZM158.051 62.2V70.2H166.051V62.2H158.051ZM214.051 62.2V70.2H222.051V62.2H214.051ZM238.086 0.199946H258.086V2.19995H282.086C294.186 2.19995 304.086 12.0999 304.086 24.1999V56.2H306.086V76.2H286.086V56.2H288.086V24.1999C288.086 20.8999 285.386 18.1999 282.086 18.1999H258.086V20.2H256.086V56.2H258.086V76.2H238.086V56.2H240.086V20.2H238.086V0.199946ZM244.086 6.19995V14.2H252.086V6.19995H244.086ZM258.086 8.19995V12.1999H282.086C288.686 12.1999 294.086 17.5999 294.086 24.1999V56.2H298.086V24.1999C298.086 15.3999 290.886 8.19995 282.086 8.19995H258.086ZM246.086 20.2V56.2H250.086V20.2H246.086ZM244.086 62.2V70.2H252.086V62.2H244.086ZM292.086 62.2V70.2H300.086V62.2H292.086ZM354.113 0.199946C375.113 0.199946 392.113 17.1999 392.113 38.1999C392.113 59.2 375.113 76.2 354.113 76.2C333.113 76.2 316.113 59.2 316.113 38.1999C316.113 17.1999 333.113 0.199946 354.113 0.199946ZM354.113 6.19995C336.413 6.19995 322.113 20.4999 322.113 38.1999C322.113 55.9 336.413 70.2 354.113 70.2C371.813 70.2 386.113 55.9 386.113 38.1999C386.113 20.4999 371.813 6.19995 354.113 6.19995ZM354.113 10.1999C369.613 10.1999 382.113 22.6999 382.113 38.1999C382.113 53.7 369.613 66.2 354.113 66.2C338.613 66.2 326.113 53.7 326.113 38.1999C326.113 22.6999 338.613 10.1999 354.113 10.1999ZM354.113 16.1999C342.013 16.1999 332.113 26.0999 332.113 38.1999C332.113 50.3 342.013 60.2 354.113 60.2C366.213 60.2 376.113 50.3 376.113 38.1999C376.113 26.0999 366.213 16.1999 354.113 16.1999ZM344.113 28.1999H364.113V48.2H344.113V28.1999ZM350.113 34.1999V42.2H358.113V34.1999H350.113Z" fill="url(#paint0_linear_7584_105)"/>
<defs>
<linearGradient id="paint0_linear_7584_105" x1="-5" y1="37.7" x2="398" y2="37.7" gradientUnits="userSpaceOnUse">
<stop stop-color="#E2E2E2"/>
<stop offset="1" stop-color="white"/>
</linearGradient>
</defs>
</svg>
