<svg width="423" height="77" viewBox="0 0 423 77" fill="none" xmlns="http://www.w3.org/2000/svg">
<path d="M38 0.199946L52.2 14.2999L50.7 15.7999L74 39.2999V56.2H76V76.2H56V56.2H58V45.9L39.4 27.2L38.1 28.4999L38 28.3999L37.9 28.4999L38 28.2999L36.7 27.0999L18 45.9V56.2H20V76.2H7.45058e-08V56.2H2V39.2999L25.3 15.7999L23.9 14.3999L38 0.199946ZM38 8.69995L32.4 14.3999L38.1 19.9999L43.7 14.2999L38 8.69995ZM29.6 19.9999L8 41.8V56.2H12V43.4999L32.4 22.7999L29.6 19.9999ZM46.5 20.0999L43.6 22.8999L64 43.4999V56.2H68V41.8L46.5 20.0999ZM38 44.1999C43.5 44.1999 48 48.7 48 54.1999C48 59.7 43.5 64.2 38 64.2C32.5 64.2 28 59.7 28 54.1999C28 48.7 32.5 44.1999 38 44.1999ZM38 50.1999C35.8 50.1999 34 51.9999 34 54.1999C34 56.3999 35.8 58.2 38 58.2C40.2 58.2 42 56.3999 42 54.1999C42 51.9999 40.2 50.1999 38 50.1999ZM6 62.2V70.2H14V62.2H6ZM62 62.2V70.2H70V62.2H62ZM86.0352 -5.126e-05H106.035V1.99995H118.035C137.935 1.99995 154.035 18.0999 154.035 37.9999C154.035 57.8999 137.935 74 118.035 74H106.035V76H86.0352V56H88.0352V19.9999H86.0352V-5.126e-05ZM92.0352 5.99995V13.9999H100.035V5.99995H92.0352ZM106.035 7.99995V11.9999H118.035C132.435 11.9999 144.035 23.5999 144.035 37.9999C144.035 52.4 132.435 64 118.035 64H106.035V68H118.035C134.635 68 148.035 54.6 148.035 37.9999C148.035 21.3999 134.635 7.99995 118.035 7.99995H106.035ZM106.035 17.9999V19.9999H104.035V56H106.035V58H118.035C129.035 58 138.035 48.9999 138.035 37.9999C138.035 26.9999 129.035 17.9999 118.035 17.9999H106.035ZM94.0352 19.9999V56H98.0352V19.9999H94.0352ZM92.0352 62V70H100.035V62H92.0352ZM164.063 0.199946H184.062V2.19995H200.063C212.163 2.19995 222.063 12.0999 222.063 24.1999C222.063 27.6999 220.563 32.8999 218.763 35.7999C223.263 39.7999 226.063 45.7 226.063 52.2V56.2H228.063V76.2H208.063V56.2H210.063V52.2C210.063 48.9 207.363 46.1999 204.063 46.1999H182.063V56.2H184.062V76.2H164.063V56.2H166.063V20.2H164.063V0.199946ZM170.063 6.19995V14.2H178.063V6.19995H170.063ZM184.062 8.19995V12.1999H200.063C206.663 12.1999 212.063 17.5999 212.063 24.1999C212.063 30.7999 206.663 36.2 200.063 36.2H182.063V40.1999H200.063C208.863 40.1999 216.063 33 216.063 24.1999C216.063 15.3999 208.863 8.19995 200.063 8.19995H184.062ZM184.062 18.1999V20.2H182.063V30.2H200.063C203.363 30.2 206.063 27.4999 206.063 24.1999C206.063 20.8999 203.363 18.1999 200.063 18.1999H184.062ZM172.063 20.2V56.2H176.063V20.2H172.063ZM214.863 40.4C214.063 41.1999 212.563 42.2999 211.663 42.9C214.363 45.0999 216.063 48.3999 216.063 52.2V56.2H220.063V52.2C220.063 47.5 218.063 43.2999 214.863 40.4ZM170.063 62.2V70.2H178.063V62.2H170.063ZM214.063 62.2V70.2H222.063V62.2H214.063ZM238.086 0.199946H258.086V20.2H256.086V56.2H258.086V76.2H238.086V56.2H240.086V20.2H238.086V0.199946ZM244.086 6.19995V14.2H252.086V6.19995H244.086ZM246.086 20.2V56.2H250.086V20.2H246.086ZM244.086 62.2V70.2H252.086V62.2H244.086ZM306.066 0.199946L320.266 14.2999L318.766 15.7999L342.066 39.2999V56.2H344.066V76.2H324.066V56.2H326.066V45.9L307.466 27.2L306.166 28.4999L306.066 28.3999L305.966 28.4999L306.066 28.2999L304.766 27.0999L286.066 45.9V56.2H288.066V76.2H268.066V56.2H270.066V39.2999L293.366 15.7999L291.966 14.3999L306.066 0.199946ZM306.066 8.69995L300.466 14.3999L306.166 19.9999L311.766 14.2999L306.066 8.69995ZM297.666 19.9999L276.066 41.8V56.2H280.066V43.4999L300.466 22.7999L297.666 19.9999ZM314.566 20.0999L311.666 22.8999L332.066 43.4999V56.2H336.066V41.8L314.566 20.0999ZM306.066 44.1999C311.566 44.1999 316.066 48.7 316.066 54.1999C316.066 59.7 311.566 64.2 306.066 64.2C300.566 64.2 296.066 59.7 296.066 54.1999C296.066 48.7 300.566 44.1999 306.066 44.1999ZM306.066 50.1999C303.866 50.1999 302.066 51.9999 302.066 54.1999C302.066 56.3999 303.866 58.2 306.066 58.2C308.266 58.2 310.066 56.3999 310.066 54.1999C310.066 51.9999 308.266 50.1999 306.066 50.1999ZM274.066 62.2V70.2H282.066V62.2H274.066ZM330.066 62.2V70.2H338.066V62.2H330.066ZM354.102 0.199946H374.102V2.19995H398.102C410.202 2.19995 420.102 12.0999 420.102 24.1999V56.2H422.102V76.2H402.102V56.2H404.102V24.1999C404.102 20.8999 401.402 18.1999 398.102 18.1999H374.102V20.2H372.102V56.2H374.102V76.2H354.102V56.2H356.102V20.2H354.102V0.199946ZM360.102 6.19995V14.2H368.102V6.19995H360.102ZM374.102 8.19995V12.1999H398.102C404.702 12.1999 410.102 17.5999 410.102 24.1999V56.2H414.102V24.1999C414.102 15.3999 406.902 8.19995 398.102 8.19995H374.102ZM362.102 20.2V56.2H366.102V20.2H362.102ZM360.102 62.2V70.2H368.102V62.2H360.102ZM408.102 62.2V70.2H416.102V62.2H408.102Z" fill="url(#paint0_linear_7584_105)"/>
<defs>
<linearGradient id="paint0_linear_7584_105" x1="-5" y1="37.7" x2="428" y2="37.7" gradientUnits="userSpaceOnUse">
<stop stop-color="#E2E2E2"/>
<stop offset="1" stop-color="white"/>
</linearGradient>
</defs>
</svg>
