<svg width="376" height="204" viewBox="0 0 376 204" fill="none" xmlns="http://www.w3.org/2000/svg">
<path fill-rule="evenodd" clip-rule="evenodd" d="M104.86 46.09C96.44 37.67 85.31 33.48 74.22 33.48C63.13 33.48 52 37.67 43.58 46.09C29.57 60.14 27.18 81.71 36.59 98.27C38.51 101.52 40.82 104.56 43.6 107.34L43.93 107.74L74.22 137.98L104.86 107.34C107.64 104.56 109.96 101.52 111.83 98.27C121.25 81.69 118.92 60.15 104.86 46.09ZM52.52 55.65C58.48 49.69 66.34 46.72 74.22 46.72C82.1 46.72 89.96 49.69 95.92 55.65C103.54 63.27 106.29 73.99 104.18 83.87L102.52 82.21L74.25 53.88L44.25 83.88C42.15 74 44.91 63.27 52.51 55.65H52.52ZM91.47 103.5L74.23 120.74L56.96 103.5L43.97 104.14L50.88 97.23C50.88 97.23 50.82 97.16 50.79 97.12L74.27 73.78L97.69 97.13C97.69 97.13 97.63 97.2 97.6 97.24L104.5 104.14L91.48 103.5H91.47Z" fill="#068DFC"/>
<path d="M171.23 46.2998H176.08L166.64 81.0798H161.69L154.23 54.5398L146.72 81.0798H141.77L132.33 46.2998H137.49L144.43 74.6198L152.1 47.3498H156.64L164.31 74.6698L171.25 46.2998H171.23Z" fill="#1A1A1A"/>
<path d="M176.81 68.9799C176.81 66.4799 177.32 64.2599 178.35 62.3299C179.37 60.3999 180.79 58.8899 182.6 57.7899C184.41 56.6999 186.48 56.1499 188.81 56.1499C191.14 56.1499 193.24 56.7199 195.02 57.8399C196.79 58.9699 198.17 60.5399 199.17 62.5599C200.16 64.5799 200.66 66.9199 200.66 69.5999V70.2799H181.26C181.4 72.6399 182.23 74.5099 183.76 75.8899C185.29 77.2599 187.29 77.9499 189.76 77.9499C192.68 77.9499 195.25 76.9299 197.48 74.8699L199.98 77.5299C198.69 78.9199 197.15 79.9799 195.36 80.7099C193.57 81.4399 191.65 81.8099 189.6 81.8099C187.1 81.8099 184.88 81.2699 182.95 80.1899C181.02 79.1099 179.52 77.6099 178.44 75.6799C177.36 73.7499 176.82 71.5199 176.82 68.9799H176.81ZM193.92 61.8899C192.63 60.6399 190.96 60.0099 188.91 60.0099C186.86 60.0099 185.03 60.6399 183.64 61.9099C182.25 63.1799 181.45 64.8599 181.24 66.9399H196.1C195.93 64.8199 195.2 63.1299 193.91 61.8799L193.92 61.8899Z" fill="#1A1A1A"/>
<path d="M205.91 46.2998H210.29V59.7498C211.96 57.3498 214.53 56.1498 218.01 56.1498C220.27 56.1498 222.23 56.6598 223.9 57.6898C225.57 58.7198 226.86 60.1498 227.78 61.9898C228.7 63.8298 229.16 65.9898 229.16 68.4598C229.16 71.1698 228.59 73.5298 227.47 75.5298C226.34 77.5298 224.73 79.0798 222.65 80.1698C220.56 81.2598 218.11 81.8098 215.3 81.8098C213.8 81.8098 212.17 81.6598 210.4 81.3698C208.63 81.0798 207.13 80.6998 205.92 80.2498V46.2998H205.91ZM224.68 68.5698C224.68 65.9998 224.03 63.9298 222.72 62.3598C221.41 60.7898 219.65 60.0098 217.43 60.0098C215.34 60.0098 213.63 60.6998 212.29 62.0698C210.95 63.4398 210.28 65.2098 210.28 67.3598V77.2698C211.88 77.7198 213.46 77.9498 215.03 77.9498C218.05 77.9498 220.42 77.1198 222.12 75.4698C223.82 73.8198 224.67 71.5198 224.67 68.5598L224.68 68.5698Z" fill="#1A1A1A"/>
<path d="M235.32 46.2998H240.01V76.9098H258.31V81.0798H235.31V46.2998H235.32Z" fill="#1A1A1A"/>
<path d="M261.91 68.9799C261.91 66.4799 262.42 64.2599 263.45 62.3299C264.48 60.3999 265.89 58.8899 267.7 57.7899C269.51 56.6899 271.58 56.1499 273.91 56.1499C276.24 56.1499 278.34 56.7199 280.12 57.8399C281.89 58.9699 283.27 60.5399 284.27 62.5599C285.26 64.5799 285.76 66.9199 285.76 69.5999V70.2799H266.36C266.5 72.6399 267.33 74.5099 268.86 75.8899C270.39 77.2599 272.39 77.9499 274.86 77.9499C277.78 77.9499 280.35 76.9299 282.58 74.8699L285.08 77.5299C283.79 78.9199 282.25 79.9799 280.46 80.7099C278.67 81.4399 276.75 81.8099 274.7 81.8099C272.2 81.8099 269.98 81.2699 268.05 80.1899C266.12 79.1099 264.62 77.6099 263.54 75.6799C262.46 73.7499 261.92 71.5199 261.92 68.9799H261.91ZM279.02 61.8899C277.73 60.6399 276.06 60.0099 274.01 60.0099C271.96 60.0099 270.13 60.6399 268.74 61.9099C267.35 63.1799 266.55 64.8599 266.34 66.9399H281.2C281.03 64.8199 280.3 63.1299 279.01 61.8799L279.02 61.8899Z" fill="#1A1A1A"/>
<path d="M289.6 73.9897C289.6 71.4197 290.56 69.3897 292.47 67.9097C294.38 66.4297 297.11 65.6897 300.66 65.6897C301.46 65.6897 302.35 65.7297 303.35 65.8197C304.34 65.9097 305.31 66.0197 306.24 66.1597V65.0697C306.24 61.6297 304.15 59.9097 299.98 59.9097C297.2 59.9097 294.82 60.6697 292.84 62.1997L290.75 59.1797C293.39 57.1597 296.54 56.1597 300.19 56.1597C303.42 56.1597 305.93 56.9297 307.73 58.4497C309.52 59.9797 310.42 62.0997 310.42 64.8097V81.0797H306.51L306.35 77.8497C305.52 79.0997 304.37 80.0797 302.91 80.7697C301.45 81.4597 299.85 81.8097 298.11 81.8097C295.57 81.8097 293.52 81.1097 291.96 79.6997C290.4 78.2897 289.61 76.3897 289.61 73.9897H289.6ZM293.88 73.9397C293.88 75.3297 294.33 76.4097 295.24 77.1697C296.14 77.9397 297.38 78.3197 298.94 78.3197C300.3 78.3197 301.53 78.0397 302.64 77.4897C303.75 76.9297 304.63 76.1997 305.27 75.2997C305.91 74.3997 306.23 73.4097 306.23 72.3297V69.5097C305.33 69.3397 304.42 69.2197 303.52 69.1397C302.62 69.0697 301.8 69.0397 301.07 69.0397C298.74 69.0397 296.96 69.4597 295.73 70.2897C294.5 71.1197 293.88 72.3397 293.88 73.9397Z" fill="#1A1A1A"/>
<path d="M315.62 69.6096C315.62 66.9996 316.16 64.6796 317.24 62.6496C318.32 60.6196 319.8 59.0296 321.7 57.8796C323.6 56.7296 325.76 56.1596 328.19 56.1596C330.38 56.1596 332.48 56.7196 334.5 57.8296V46.3096H338.88V81.0896H334.76L334.6 78.0096C333.8 79.2296 332.72 80.1696 331.37 80.8296C330.01 81.4896 328.47 81.8196 326.73 81.8196C324.54 81.8196 322.61 81.3096 320.94 80.2796C319.27 79.2596 317.97 77.8196 317.03 75.9796C316.09 74.1396 315.62 72.0196 315.62 69.6196V69.6096ZM320.11 69.2996C320.11 71.9396 320.76 74.0496 322.07 75.6096C323.38 77.1696 325.14 77.9596 327.36 77.9596C329.45 77.9596 331.16 77.2596 332.5 75.8696C333.84 74.4796 334.51 72.7096 334.51 70.5496V61.8896C332.67 60.6396 330.67 60.0096 328.51 60.0096C325.97 60.0096 323.94 60.8496 322.41 62.5396C320.88 64.2296 320.12 66.4796 320.12 69.2896L320.11 69.2996Z" fill="#1A1A1A"/>
<path d="M153.14 111.77H165.19V125.48C163.66 126.91 161.7 128.03 159.32 128.87C156.94 129.7 154.46 130.12 151.89 130.12C148.38 130.12 145.27 129.36 142.56 127.83C139.85 126.3 137.74 124.17 136.22 121.44C134.71 118.71 133.95 115.57 133.95 112.03C133.95 108.49 134.71 105.33 136.22 102.57C137.73 99.8097 139.81 97.6297 142.45 96.0497C145.09 94.4697 148.1 93.6797 151.47 93.6797C154.29 93.6797 156.84 94.2597 159.14 95.4297C161.43 96.5997 163.36 98.2897 164.93 100.51L161.54 103.33C159.11 99.7497 155.75 97.9597 151.48 97.9597C149.05 97.9597 146.88 98.5597 144.99 99.7597C143.09 100.96 141.61 102.61 140.53 104.71C139.45 106.81 138.91 109.24 138.91 111.98C138.91 114.72 139.46 117.14 140.55 119.23C141.65 121.32 143.18 122.94 145.17 124.11C147.15 125.28 149.46 125.86 152.11 125.86C155.34 125.86 158.21 125.04 160.71 123.41V115.85H153.15V111.78L153.14 111.77Z" fill="#1A1A1A"/>
<path d="M170.97 117.19C170.97 114.69 171.48 112.47 172.51 110.54C173.53 108.61 174.95 107.1 176.76 106C178.57 104.91 180.64 104.36 182.97 104.36C185.3 104.36 187.4 104.93 189.18 106.05C190.95 107.18 192.33 108.75 193.33 110.77C194.32 112.79 194.82 115.13 194.82 117.81V118.49H175.42C175.56 120.85 176.39 122.72 177.92 124.1C179.45 125.47 181.45 126.16 183.92 126.16C186.84 126.16 189.41 125.14 191.64 123.08L194.14 125.74C192.85 127.13 191.31 128.19 189.52 128.92C187.73 129.65 185.81 130.02 183.76 130.02C181.26 130.02 179.04 129.48 177.11 128.4C175.18 127.32 173.68 125.82 172.6 123.89C171.52 121.96 170.98 119.73 170.98 117.19H170.97ZM188.08 110.1C186.79 108.85 185.12 108.22 183.07 108.22C181.02 108.22 179.19 108.85 177.8 110.12C176.41 111.39 175.61 113.07 175.4 115.15H190.26C190.09 113.03 189.36 111.34 188.07 110.09L188.08 110.1Z" fill="#1A1A1A"/>
<path d="M200.07 105.1H204.19L204.35 108.75C205.22 107.36 206.38 106.28 207.84 105.52C209.3 104.76 210.97 104.37 212.85 104.37C215.73 104.37 217.98 105.27 219.58 107.08C221.18 108.89 221.98 111.41 221.98 114.64V129.29H217.6V115C217.6 112.78 217.1 111.08 216.09 109.92C215.08 108.76 213.64 108.17 211.76 108.17C209.54 108.17 207.76 108.95 206.44 110.52C205.12 112.08 204.46 114.19 204.46 116.83V129.29H200.08V105.09L200.07 105.1Z" fill="#1A1A1A"/>
<path d="M228.12 95.6597H233.02V100.67H228.12V95.6597ZM228.38 105.1H232.76V129.3H228.38V105.1Z" fill="#1A1A1A"/>
<path d="M239.18 119.7V105.1H243.56V119.34C243.56 121.57 244.04 123.27 244.99 124.45C245.95 125.63 247.33 126.22 249.14 126.22C251.33 126.22 253.1 125.39 254.43 123.72C255.77 122.05 256.44 119.84 256.44 117.1V105.11H260.82V129.31H256.7L256.54 125.61C255.67 127 254.51 128.09 253.07 128.87C251.63 129.65 249.98 130.04 248.14 130.04C245.29 130.04 243.08 129.14 241.52 127.33C239.96 125.52 239.17 122.98 239.17 119.72L239.18 119.7Z" fill="#1A1A1A"/>
<path d="M281.83 122.72C281.83 121.71 281.4 120.92 280.55 120.35C279.7 119.78 278.26 119.3 276.25 118.92L274.58 118.61C269.61 117.67 267.12 115.38 267.12 111.73C267.12 109.51 268 107.72 269.75 106.39C271.5 105.05 273.84 104.38 276.76 104.38C280.34 104.38 283.28 105.42 285.57 107.51L283.17 110.53C281.29 108.9 279.03 108.08 276.39 108.08C274.79 108.08 273.56 108.37 272.69 108.94C271.82 109.51 271.39 110.32 271.39 111.36C271.39 112.3 271.79 113.04 272.59 113.58C273.39 114.12 274.75 114.58 276.66 114.96L278.33 115.27C281.04 115.79 283.04 116.63 284.33 117.77C285.62 118.91 286.26 120.45 286.26 122.36C286.26 124.72 285.36 126.59 283.57 127.97C281.78 129.34 279.34 130.03 276.24 130.03C274.12 130.03 272.17 129.71 270.4 129.07C268.63 128.43 267.17 127.51 266.02 126.33L268.73 123.41C270.68 125.36 273.18 126.33 276.24 126.33C278.05 126.33 279.43 126.02 280.39 125.39C281.35 124.76 281.82 123.88 281.82 122.73L281.83 122.72Z" fill="#1A1A1A"/>
<path d="M145.25 158.2L145.16 158.3C144.54 159.05 143.65 159.42 142.49 159.42C141.53 159.42 140.69 159.1 139.99 158.46C139.29 157.82 138.93 157.03 138.93 156.08V152.5C138.93 151.55 139.29 150.75 140.01 150.11C140.7 149.49 141.52 149.18 142.49 149.18H146.07V155.77C146.07 156.41 146.29 156.93 146.72 157.31C147.16 157.69 147.69 157.89 148.34 157.89V159.42C146.99 159.42 145.95 159.01 145.24 158.2H145.25ZM144.44 150.72H142.5C141.94 150.72 141.48 150.93 141.12 151.36C140.76 151.78 140.57 152.28 140.57 152.84V155.78C140.57 156.34 140.75 156.84 141.12 157.26C141.48 157.68 141.94 157.9 142.5 157.9C143.06 157.9 143.51 157.68 143.91 157.25C144.27 156.84 144.45 156.35 144.45 155.79V150.73L144.44 150.72Z" fill="#7F7E7F"/>
<path d="M269.05 159.43C268.09 159.43 267.26 159.11 266.57 158.48C265.85 157.84 265.49 157.04 265.49 156.09V152.51C265.49 151.56 265.85 150.76 266.57 150.12C267.26 149.5 268.08 149.19 269.05 149.19C270.07 149.19 270.91 149.53 271.57 150.21C272.23 150.89 272.58 151.74 272.61 152.77H270.99C270.9 152.2 270.7 151.73 270.39 151.36C270.03 150.94 269.59 150.72 269.05 150.72C268.51 150.72 268.04 150.93 267.67 151.36C267.3 151.78 267.12 152.28 267.12 152.84V155.78C267.12 156.34 267.3 156.84 267.67 157.26C268.04 157.68 268.5 157.9 269.05 157.9C269.6 157.9 270.04 157.69 270.39 157.26C270.7 156.89 270.9 156.42 270.99 155.85H272.61C272.57 156.88 272.23 157.74 271.57 158.41C270.91 159.09 270.07 159.43 269.05 159.43Z" fill="#7F7E7F"/>
<path d="M278.79 159.43C277.83 159.43 277 159.11 276.31 158.48C275.59 157.84 275.23 157.04 275.23 156.09V152.51C275.23 151.56 275.59 150.76 276.31 150.12C277 149.5 277.82 149.19 278.79 149.19C279.76 149.19 280.6 149.5 281.3 150.13C282 150.76 282.35 151.55 282.35 152.51V156.09C282.35 157.05 282 157.85 281.3 158.48C280.6 159.11 279.76 159.43 278.79 159.43ZM280.72 152.84C280.72 152.28 280.54 151.79 280.17 151.36C279.8 150.94 279.34 150.72 278.79 150.72C278.24 150.72 277.78 150.93 277.41 151.36C277.04 151.78 276.86 152.28 276.86 152.84V155.78C276.86 156.34 277.04 156.84 277.41 157.26C277.78 157.68 278.24 157.9 278.79 157.9C279.34 157.9 279.8 157.69 280.17 157.26C280.54 156.84 280.72 156.34 280.72 155.78V152.84Z" fill="#7F7E7F"/>
<path d="M292.23 150.39C292.95 149.59 293.87 149.19 294.98 149.19C295.95 149.19 296.79 149.5 297.49 150.13C298.19 150.76 298.54 151.55 298.54 152.51V159.39H296.91V152.83C296.91 152.27 296.73 151.78 296.36 151.35C295.99 150.93 295.53 150.71 294.98 150.71C294.43 150.71 293.97 150.92 293.6 151.35C293.23 151.77 293.05 152.27 293.05 152.83V159.39H291.42V152.83C291.42 152.27 291.24 151.78 290.87 151.35C290.5 150.93 290.04 150.71 289.49 150.71C288.94 150.71 288.48 150.92 288.11 151.35C287.74 151.77 287.56 152.27 287.56 152.83V159.39H285.93V152.83C285.93 152.19 285.71 151.67 285.28 151.29C284.84 150.91 284.3 150.71 283.65 150.71V149.18C285 149.18 286.04 149.58 286.75 150.38C287.47 149.58 288.39 149.18 289.5 149.18C290.61 149.18 291.52 149.58 292.24 150.38L292.23 150.39Z" fill="#7F7E7F"/>
<path d="M309.4 156.21C309.4 157.17 309.05 157.98 308.35 158.62C307.65 159.26 306.81 159.58 305.83 159.58C305.14 159.58 304.5 159.4 303.91 159.05V162.47H302.28V152.89C302.28 152.25 302.06 151.73 301.63 151.34C301.19 150.95 300.65 150.76 300 150.76V149.19C301.35 149.19 302.39 149.6 303.1 150.41C303.82 149.6 304.74 149.19 305.85 149.19C306.82 149.19 307.66 149.51 308.36 150.15C309.06 150.79 309.41 151.6 309.41 152.56V156.21H309.4ZM307.76 155.86V152.88C307.76 152.32 307.58 151.82 307.21 151.39C306.84 150.96 306.38 150.74 305.83 150.74C305.28 150.74 304.82 150.96 304.45 151.39C304.08 151.82 303.9 152.32 303.9 152.88V155.86C303.9 156.43 304.08 156.93 304.43 157.34C304.81 157.79 305.27 158.01 305.82 158.01C306.37 158.01 306.83 157.79 307.2 157.36C307.57 156.92 307.75 156.43 307.75 155.86H307.76Z" fill="#7F7E7F"/>
<path d="M318.52 158.2L318.43 158.3C317.81 159.05 316.92 159.42 315.76 159.42C314.8 159.42 313.96 159.1 313.26 158.46C312.55 157.82 312.2 157.03 312.2 156.08V152.5C312.2 151.55 312.56 150.75 313.28 150.11C313.97 149.49 314.79 149.18 315.76 149.18H319.34V155.77C319.34 156.41 319.56 156.93 319.99 157.31C320.43 157.69 320.96 157.89 321.61 157.89V159.42C320.26 159.42 319.22 159.01 318.51 158.2H318.52ZM317.71 150.72H315.77C315.21 150.72 314.75 150.93 314.39 151.36C314.03 151.78 313.84 152.28 313.84 152.84V155.78C313.84 156.34 314.02 156.84 314.39 157.26C314.76 157.68 315.22 157.9 315.77 157.9C316.32 157.9 316.78 157.68 317.18 157.25C317.54 156.84 317.72 156.35 317.72 155.79V150.73L317.71 150.72Z" fill="#7F7E7F"/>
<path d="M325.29 150.36C326.01 149.56 326.93 149.16 328.04 149.16C329.01 149.16 329.85 149.48 330.55 150.11C331.25 150.74 331.6 151.54 331.6 152.5V159.36H329.97V152.82C329.97 152.26 329.79 151.77 329.42 151.35C329.05 150.93 328.59 150.72 328.04 150.72C327.49 150.72 327.03 150.93 326.66 151.35C326.29 151.77 326.11 152.26 326.11 152.82V159.36H324.48V152.81C324.48 152.17 324.26 151.66 323.83 151.28C323.39 150.9 322.85 150.71 322.2 150.71V149.16C323.55 149.16 324.59 149.56 325.3 150.36H325.29Z" fill="#7F7E7F"/>
<path d="M341.67 159.15C341.67 160.18 341.26 161.01 340.45 161.65C339.7 162.23 338.8 162.53 337.75 162.53V160.96C338.36 160.96 338.87 160.79 339.3 160.46C339.72 160.13 339.97 159.66 340.04 159.07L339.63 159.26C338.96 159.48 338.46 159.59 338.12 159.59C337.16 159.59 336.32 159.27 335.62 158.63C334.92 157.99 334.56 157.18 334.56 156.22V149.23H336.19V155.89C336.19 156.44 336.37 156.93 336.73 157.37C337.09 157.81 337.55 158.02 338.1 158.02C338.65 158.02 339.14 157.8 339.52 157.37C339.87 156.96 340.04 156.46 340.04 155.89V149.23H341.67V159.16V159.15Z" fill="#7F7E7F"/>
<path d="M162.32 159.13C161.74 159.5 161.09 159.68 160.39 159.68C159.42 159.68 158.58 159.36 157.88 158.71C157.18 158.06 156.83 157.26 156.83 156.29V152.66C156.83 151.7 157.18 150.89 157.89 150.25C158.6 149.61 159.43 149.29 160.39 149.29C161.35 149.29 162.19 149.61 162.89 150.25C163.59 150.89 163.95 151.69 163.95 152.66V158.9C163.95 159.55 164.16 160.08 164.59 160.46C165.02 160.85 165.57 161.04 166.23 161.04V162.61C165.16 162.61 164.26 162.32 163.51 161.73C162.71 161.09 162.31 160.25 162.31 159.22V159.12L162.32 159.13ZM162.32 153.01C162.32 152.44 162.14 151.94 161.78 151.51C161.42 151.08 160.96 150.87 160.4 150.87C159.84 150.87 159.38 151.08 159.02 151.51C158.66 151.94 158.48 152.44 158.48 153.01V155.98C158.48 156.55 158.66 157.04 159.01 157.46C159.38 157.91 159.84 158.13 160.4 158.13C160.96 158.13 161.43 157.91 161.79 157.46C162.15 157.05 162.32 156.56 162.32 155.98V153.01Z" fill="#7F7E7F"/>
<path d="M170.16 159.49C169.2 159.49 168.37 159.18 167.68 158.54C166.96 157.9 166.6 157.1 166.6 156.15V149.29H168.23V155.84C168.23 156.4 168.41 156.89 168.78 157.32C169.15 157.74 169.61 157.96 170.16 157.96C170.71 157.96 171.17 157.75 171.54 157.32C171.91 156.9 172.09 156.4 172.09 155.84V149.29H173.72V156.15C173.72 157.1 173.37 157.9 172.66 158.53C171.95 159.17 171.12 159.48 170.16 159.48V159.49Z" fill="#7F7E7F"/>
<path d="M183.12 158.27L183.03 158.37C182.41 159.12 181.52 159.49 180.36 159.49C179.41 159.49 178.58 159.17 177.87 158.54C177.16 157.9 176.8 157.11 176.8 156.16V152.58C176.8 151.64 177.16 150.84 177.88 150.19C178.58 149.57 179.4 149.26 180.36 149.26H183.94V155.85C183.94 156.49 184.16 157.01 184.61 157.4C185.02 157.78 185.56 157.97 186.21 157.97V159.5C184.86 159.5 183.83 159.09 183.12 158.28V158.27ZM182.32 150.79H180.38C179.82 150.79 179.37 151 179 151.43C178.64 151.85 178.45 152.35 178.45 152.91V155.85C178.45 156.41 178.63 156.9 179 157.33C179.36 157.75 179.82 157.97 180.38 157.97C180.94 157.97 181.41 157.75 181.79 157.32C182.15 156.92 182.33 156.43 182.33 155.86V150.8L182.32 150.79Z" fill="#7F7E7F"/>
<path d="M189.95 151.24L191.91 149.07H194.04L191.22 152.21L195.68 159.42H193.76L190.1 153.47L189.94 153.62V159.42H188.31V146.16H189.94V151.23L189.95 151.24Z" fill="#7F7E7F"/>
<path d="M198.84 155.13V155.85C198.84 156.41 199.02 156.9 199.39 157.33C199.76 157.75 200.22 157.97 200.77 157.97C201.32 157.97 201.76 157.76 202.11 157.33C202.42 156.95 202.62 156.48 202.71 155.92H204.33C204.3 156.94 203.95 157.79 203.29 158.47C202.63 159.15 201.79 159.49 200.77 159.49C199.81 159.49 198.98 159.18 198.29 158.54C197.57 157.9 197.21 157.1 197.21 156.15V152.57C197.21 151.62 197.57 150.82 198.29 150.18C198.98 149.56 199.8 149.25 200.77 149.25C201.74 149.25 202.57 149.57 203.27 150.2C203.98 150.83 204.33 151.62 204.33 152.57V155.11H198.84V155.13ZM202.69 152.91C202.69 152.35 202.51 151.86 202.14 151.43C201.77 151.01 201.31 150.79 200.76 150.79C200.21 150.79 199.75 151 199.38 151.43C199.01 151.85 198.83 152.35 198.83 152.91V153.6H202.68V152.91H202.69Z" fill="#7F7E7F"/>
<path d="M208.99 150.43C209.71 149.63 210.63 149.23 211.74 149.23C212.7 149.23 213.54 149.55 214.24 150.18C214.95 150.82 215.3 151.61 215.3 152.56V159.42H213.67V152.88C213.67 152.32 213.49 151.83 213.12 151.41C212.75 150.99 212.3 150.78 211.74 150.78C211.18 150.78 210.73 150.99 210.36 151.41C209.99 151.83 209.81 152.32 209.81 152.88V159.42H208.18V152.87C208.18 152.23 207.96 151.72 207.53 151.34C207.09 150.96 206.55 150.77 205.9 150.77V149.22C207.25 149.22 208.28 149.62 209 150.42L208.99 150.43Z" fill="#7F7E7F"/>
<path d="M220.02 149.64C220.6 149.28 221.25 149.11 221.95 149.11C222.91 149.11 223.75 149.43 224.45 150.07C225.15 150.71 225.51 151.51 225.51 152.48V156.11C225.51 157.07 225.16 157.88 224.46 158.53C223.76 159.18 222.92 159.5 221.95 159.5C220.98 159.5 220.14 159.18 219.44 158.53C218.74 157.88 218.39 157.08 218.39 156.12V146.21H220.02V149.65V149.64ZM223.87 152.82C223.87 152.25 223.69 151.75 223.33 151.32C222.97 150.89 222.51 150.68 221.95 150.68C221.39 150.68 220.93 150.89 220.57 151.32C220.21 151.75 220.03 152.25 220.03 152.82V155.79C220.03 156.36 220.21 156.85 220.56 157.27C220.93 157.72 221.39 157.94 221.95 157.94C222.51 157.94 222.98 157.72 223.34 157.27C223.69 156.86 223.87 156.37 223.87 155.79V152.82Z" fill="#7F7E7F"/>
<path d="M232.13 159.49C231.17 159.49 230.34 159.18 229.65 158.54C228.93 157.9 228.57 157.1 228.57 156.15V149.29H230.2V155.84C230.2 156.4 230.38 156.89 230.75 157.32C231.12 157.74 231.58 157.96 232.13 157.96C232.68 157.96 233.14 157.75 233.51 157.32C233.88 156.9 234.06 156.4 234.06 155.84V149.29H235.69V156.15C235.69 157.1 235.34 157.9 234.63 158.53C233.93 159.17 233.09 159.48 232.13 159.48V159.49Z" fill="#7F7E7F"/>
<path d="M244.32 152.82C244.32 152.25 244.15 151.77 243.8 151.38C243.46 150.99 243 150.8 242.42 150.8C241.94 150.8 241.5 150.97 241.11 151.3C240.72 151.63 240.53 152.03 240.53 152.5C240.53 152.82 240.65 153.08 240.88 153.29C241.11 153.5 241.39 153.6 241.71 153.6H243.14C243.91 153.6 244.57 153.86 245.13 154.37C245.69 154.88 245.97 155.51 245.97 156.27C245.97 157.21 245.62 157.98 244.91 158.59C244.2 159.2 243.37 159.5 242.41 159.5C241.45 159.5 240.56 159.16 239.87 158.47C239.19 157.78 238.85 156.93 238.85 155.93H240.52C240.52 156.5 240.69 156.98 241.04 157.36C241.39 157.75 241.85 157.94 242.41 157.94C242.91 157.94 243.36 157.78 243.73 157.47C244.11 157.16 244.3 156.76 244.3 156.26C244.3 155.94 244.18 155.67 243.94 155.46C243.7 155.24 243.42 155.14 243.1 155.14H241.67C240.91 155.14 240.25 154.89 239.69 154.38C239.13 153.88 238.85 153.25 238.85 152.51C238.85 151.58 239.22 150.8 239.95 150.17C240.65 149.57 241.47 149.28 242.41 149.28C243.44 149.28 244.29 149.62 244.96 150.29C245.63 150.97 245.97 151.82 245.97 152.85L244.3 152.83L244.32 152.82Z" fill="#7F7E7F"/>
<path d="M250.54 149.64C251.12 149.28 251.77 149.11 252.47 149.11C253.43 149.11 254.27 149.43 254.97 150.07C255.67 150.71 256.03 151.52 256.03 152.48V159.46H254.4V152.82C254.4 152.25 254.22 151.75 253.86 151.32C253.5 150.89 253.04 150.68 252.48 150.68C251.92 150.68 251.46 150.89 251.1 151.32C250.74 151.75 250.56 152.25 250.56 152.82V159.46H248.93V146.2H250.56V149.64H250.54Z" fill="#7F7E7F"/>
<path d="M179.2 146.9C178.55 146.9 177.74 147.17 177.29 147.55C176.84 147.93 176.46 148.4 176.32 149.2H174.95C174.95 148.14 175.35 147.21 175.94 146.46C176.58 145.65 177.84 145.27 178.87 145.27H183.97V146.9H179.19H179.2Z" fill="#068DFC"/>
</svg>
