<svg width="1298" height="703" viewBox="0 0 1298 703" fill="none" xmlns="http://www.w3.org/2000/svg">
<path fill-rule="evenodd" clip-rule="evenodd" d="M362.598 159.322C333.482 130.216 294.995 115.732 256.647 115.732C218.299 115.732 179.812 130.216 150.696 159.322C102.251 207.889 93.9863 282.451 126.525 339.695C133.165 350.93 141.152 361.438 150.765 371.048L151.906 372.431L256.647 476.963L362.598 371.048C372.211 361.438 380.233 350.93 386.699 339.695C419.273 282.382 411.216 207.924 362.598 159.322ZM181.61 192.368C202.219 171.766 229.398 161.5 256.647 161.5C283.895 161.5 311.075 171.766 331.684 192.368C358.033 218.709 367.542 255.765 360.246 289.918L354.506 284.18L256.751 186.25L153.013 289.953C145.751 255.8 155.295 218.709 181.575 192.368H181.61ZM316.296 357.774L256.681 417.368L196.963 357.774L152.045 359.986L175.939 336.1C175.939 336.1 175.732 335.858 175.628 335.72L256.82 255.039L337.804 335.755C337.804 335.755 337.597 335.997 337.493 336.135L361.353 359.986L316.331 357.774H316.296Z" fill="#068DFC"/>
<path d="M592.1 160.048H608.871L576.228 280.274H559.111L533.315 188.531L507.346 280.274H490.23L457.587 160.048H475.43L499.428 257.943L525.95 163.677H541.649L568.171 258.116L592.169 160.048H592.1Z" fill="#1A1A1A"/>
<path d="M611.395 238.447C611.395 229.805 613.159 222.131 616.72 215.459C620.247 208.788 625.158 203.568 631.417 199.766C637.675 195.998 644.833 194.097 652.89 194.097C660.947 194.097 668.209 196.067 674.364 199.939C680.484 203.845 685.256 209.272 688.714 216.254C692.138 223.237 693.867 231.326 693.867 240.59V242.941H626.783C627.267 251.099 630.137 257.563 635.428 262.333C640.718 267.069 647.634 269.454 656.175 269.454C666.272 269.454 675.159 265.928 682.87 258.807L691.515 268.002C687.054 272.807 681.729 276.471 675.54 278.995C669.35 281.518 662.711 282.797 655.622 282.797C646.977 282.797 639.301 280.93 632.627 277.197C625.953 273.464 620.766 268.279 617.032 261.607C613.297 254.936 611.43 247.227 611.43 238.447H611.395ZM670.56 213.938C666.099 209.617 660.325 207.44 653.236 207.44C646.147 207.44 639.819 209.617 635.013 214.008C630.206 218.398 627.44 224.205 626.714 231.395H678.098C677.511 224.067 674.986 218.225 670.526 213.904L670.56 213.938Z" fill="#1A1A1A"/>
<path d="M712.021 160.048H727.166V206.541C732.941 198.245 741.828 194.097 753.861 194.097C761.676 194.097 768.454 195.86 774.229 199.42C780.003 202.98 784.464 207.924 787.645 214.284C790.827 220.645 792.417 228.111 792.417 236.649C792.417 246.017 790.446 254.175 786.573 261.089C782.666 268.002 777.099 273.36 769.906 277.128C762.679 280.896 754.207 282.797 744.491 282.797C739.304 282.797 733.667 282.278 727.547 281.276C721.426 280.274 716.239 278.96 712.055 277.404V160.048H712.021ZM776.926 237.03C776.926 228.146 774.678 220.99 770.148 215.563C765.618 210.136 759.532 207.44 751.856 207.44C744.629 207.44 738.716 209.825 734.082 214.561C729.449 219.296 727.132 225.415 727.132 232.847V267.103C732.664 268.659 738.128 269.454 743.557 269.454C754 269.454 762.195 266.585 768.074 260.881C773.952 255.177 776.891 247.227 776.891 236.995L776.926 237.03Z" fill="#1A1A1A"/>
<path d="M813.718 160.048H829.936V265.859H893.216V280.274H813.684V160.048H813.718Z" fill="#1A1A1A"/>
<path d="M905.664 238.447C905.664 229.805 907.428 222.131 910.99 215.459C914.551 208.788 919.427 203.568 925.686 199.766C931.945 195.963 939.102 194.097 947.159 194.097C955.216 194.097 962.478 196.067 968.633 199.939C974.754 203.845 979.525 209.272 982.983 216.254C986.407 223.237 988.136 231.326 988.136 240.59V242.941H921.052C921.536 251.099 924.406 257.563 929.697 262.333C934.987 267.069 941.903 269.454 950.444 269.454C960.541 269.454 969.428 265.928 977.139 258.807L985.784 268.002C981.324 272.807 975.998 276.471 969.809 278.995C963.619 281.518 956.98 282.797 949.891 282.797C941.246 282.797 933.57 280.93 926.896 277.197C920.222 273.464 915.035 268.279 911.301 261.607C907.566 254.936 905.699 247.227 905.699 238.447H905.664ZM964.829 213.938C960.369 209.617 954.594 207.44 947.505 207.44C940.416 207.44 934.088 209.617 929.282 214.008C924.475 218.398 921.709 224.205 920.983 231.395H972.368C971.78 224.067 969.256 218.225 964.795 213.904L964.829 213.938Z" fill="#1A1A1A"/>
<path d="M1001.41 255.765C1001.41 246.881 1004.73 239.864 1011.34 234.748C1017.94 229.632 1027.38 227.074 1039.66 227.074C1042.43 227.074 1045.5 227.212 1048.96 227.523C1052.38 227.834 1055.74 228.215 1058.95 228.699V224.931C1058.95 213.04 1051.73 207.094 1037.31 207.094C1027.69 207.094 1019.46 209.721 1012.62 215.01L1005.39 204.571C1014.52 197.588 1025.41 194.131 1038.03 194.131C1049.2 194.131 1057.88 196.793 1064.11 202.047C1070.3 207.336 1073.41 214.664 1073.41 224.032V280.273H1059.89L1059.33 269.108C1056.46 273.429 1052.49 276.817 1047.44 279.202C1042.39 281.587 1036.86 282.797 1030.84 282.797C1022.06 282.797 1014.97 280.377 1009.57 275.503C1004.18 270.629 1001.45 264.061 1001.45 255.765H1001.41ZM1016.21 255.592C1016.21 260.397 1017.77 264.13 1020.92 266.757C1024.03 269.419 1028.32 270.733 1033.71 270.733C1038.41 270.733 1042.67 269.765 1046.51 267.864C1050.34 265.928 1053.39 263.404 1055.6 260.293C1057.81 257.182 1058.92 253.76 1058.92 250.027V240.279C1055.81 239.691 1052.66 239.276 1049.55 239C1046.44 238.758 1043.6 238.654 1041.08 238.654C1033.02 238.654 1026.86 240.106 1022.61 242.975C1018.36 245.844 1016.21 250.061 1016.21 255.592Z" fill="#1A1A1A"/>
<path d="M1091.39 240.625C1091.39 231.603 1093.26 223.583 1096.99 216.566C1100.73 209.548 1105.84 204.052 1112.41 200.077C1118.98 196.102 1126.45 194.131 1134.86 194.131C1142.43 194.131 1149.69 196.067 1156.67 199.904V160.082H1171.82V280.308H1157.57L1157.02 269.661C1154.25 273.879 1150.52 277.128 1145.85 279.409C1141.15 281.691 1135.82 282.832 1129.81 282.832C1122.23 282.832 1115.56 281.069 1109.79 277.508C1104.01 273.982 1099.52 269.005 1096.26 262.644C1093.01 256.284 1091.39 248.955 1091.39 240.659V240.625ZM1106.92 239.553C1106.92 248.679 1109.16 255.973 1113.69 261.365C1118.22 266.758 1124.31 269.489 1131.99 269.489C1139.21 269.489 1145.13 267.069 1149.76 262.264C1154.39 257.459 1156.71 251.341 1156.71 243.874V213.938C1150.35 209.618 1143.43 207.44 1135.96 207.44C1127.18 207.44 1120.16 210.343 1114.87 216.185C1109.58 222.027 1106.95 229.805 1106.95 239.518L1106.92 239.553Z" fill="#1A1A1A"/>
<path d="M529.546 386.361H571.214V433.753C565.923 438.697 559.146 442.568 550.916 445.472C542.686 448.341 534.111 449.793 525.224 449.793C513.086 449.793 502.332 447.166 492.961 441.877C483.59 436.588 476.294 429.225 471.038 419.788C465.817 410.351 463.189 399.497 463.189 387.26C463.189 375.023 465.817 364.1 471.038 354.559C476.26 345.019 483.452 337.483 492.581 332.021C501.71 326.559 512.118 323.829 523.771 323.829C533.523 323.829 542.34 325.834 550.294 329.878C558.212 333.922 564.886 339.764 570.315 347.438L558.593 357.186C550.19 344.811 538.571 338.624 523.806 338.624C515.403 338.624 507.9 340.698 501.364 344.846C494.794 348.994 489.676 354.697 485.942 361.957C482.207 369.216 480.34 377.616 480.34 387.087C480.34 396.559 482.242 404.924 486.011 412.149C489.815 419.373 495.105 424.973 501.986 429.018C508.833 433.062 516.821 435.067 525.984 435.067C537.154 435.067 547.078 432.232 555.723 426.598V400.465H529.581V386.396L529.546 386.361Z" fill="#1A1A1A"/>
<path d="M591.201 405.097C591.201 396.455 592.964 388.781 596.526 382.109C600.053 375.438 604.963 370.218 611.222 366.416C617.481 362.648 624.639 360.747 632.696 360.747C640.753 360.747 648.015 362.717 654.17 366.589C660.29 370.495 665.062 375.922 668.52 382.904C671.943 389.887 673.672 397.976 673.672 407.24V409.591H606.589C607.073 417.748 609.943 424.213 615.233 428.983C620.524 433.719 627.44 436.104 635.981 436.104C646.078 436.104 654.965 432.578 662.676 425.457L671.321 434.652C666.86 439.457 661.535 443.121 655.345 445.644C649.156 448.168 642.516 449.447 635.428 449.447C626.783 449.447 619.106 447.58 612.433 443.847C605.759 440.114 600.572 434.929 596.837 428.257C593.103 421.585 591.235 413.877 591.235 405.097H591.201ZM650.366 380.588C645.905 376.267 640.131 374.09 633.042 374.09C625.953 374.09 619.625 376.267 614.819 380.657C610.012 385.048 607.246 390.855 606.519 398.045H657.904C657.316 390.717 654.792 384.875 650.331 380.554L650.366 380.588Z" fill="#1A1A1A"/>
<path d="M691.826 363.305H706.073L706.626 375.922C709.635 371.117 713.646 367.384 718.694 364.756C723.743 362.129 729.518 360.781 736.019 360.781C745.977 360.781 753.758 363.892 759.29 370.149C764.823 376.406 767.589 385.117 767.589 396.282V446.924H752.444V397.527C752.444 389.853 750.715 383.976 747.222 379.966C743.73 375.956 738.75 373.917 732.249 373.917C724.573 373.917 718.418 376.613 713.853 382.04C709.289 387.433 707.007 394.727 707.007 403.852V446.924H691.861V363.27L691.826 363.305Z" fill="#1A1A1A"/>
<path d="M788.821 330.673H805.765V347.991H788.821V330.673ZM789.72 363.305H804.866V446.958H789.72V363.305Z" fill="#1A1A1A"/>
<path d="M827.066 413.773V363.305H842.211V412.529C842.211 420.237 843.871 426.114 847.156 430.193C850.476 434.272 855.248 436.311 861.507 436.311C869.079 436.311 875.2 433.442 879.799 427.669C884.433 421.897 886.749 414.257 886.749 404.786V363.339H901.895V446.993H887.649L887.095 434.203C884.087 439.008 880.076 442.775 875.096 445.472C870.117 448.168 864.411 449.516 858.049 449.516C848.194 449.516 840.552 446.405 835.157 440.148C829.763 433.892 827.031 425.111 827.031 413.842L827.066 413.773Z" fill="#1A1A1A"/>
<path d="M974.546 424.213C974.546 420.721 973.059 417.991 970.12 416.02C967.181 414.05 962.201 412.391 955.251 411.077L949.476 410.006C932.29 406.756 923.68 398.84 923.68 386.223C923.68 378.549 926.723 372.361 932.774 367.764C938.826 363.132 946.917 360.816 957.014 360.816C969.394 360.816 979.56 364.411 987.479 371.636L979.18 382.075C972.679 376.44 964.864 373.606 955.735 373.606C950.202 373.606 945.949 374.608 942.941 376.579C939.932 378.549 938.445 381.349 938.445 384.944C938.445 388.193 939.828 390.751 942.595 392.618C945.361 394.485 950.064 396.075 956.669 397.388L962.443 398.46C971.814 400.257 978.73 403.161 983.191 407.102C987.651 411.043 989.865 416.366 989.865 422.968C989.865 431.126 986.752 437.59 980.563 442.361C974.373 447.097 965.936 449.482 955.216 449.482C947.885 449.482 941.142 448.376 935.022 446.163C928.901 443.951 923.853 440.771 919.876 436.692L929.247 426.598C935.99 433.339 944.635 436.692 955.216 436.692C961.475 436.692 966.247 435.62 969.567 433.442C972.886 431.265 974.511 428.223 974.511 424.247L974.546 424.213Z" fill="#1A1A1A"/>
<path d="M502.263 546.858L501.952 547.204C499.808 549.796 496.73 551.075 492.719 551.075C489.4 551.075 486.495 549.969 484.074 547.757C481.654 545.545 480.409 542.814 480.409 539.53V527.155C480.409 523.871 481.654 521.105 484.144 518.893C486.53 516.75 489.365 515.678 492.719 515.678H505.099V538.458C505.099 540.671 505.859 542.468 507.346 543.782C508.868 545.095 510.7 545.787 512.948 545.787V551.075C508.28 551.075 504.684 549.658 502.229 546.858H502.263ZM499.462 521.002H492.754C490.817 521.002 489.227 521.728 487.982 523.214C486.737 524.666 486.08 526.394 486.08 528.33V538.493C486.08 540.429 486.702 542.157 487.982 543.609C489.227 545.061 490.817 545.821 492.754 545.821C494.69 545.821 496.246 545.061 497.63 543.574C498.874 542.157 499.497 540.463 499.497 538.527V521.036L499.462 521.002Z" fill="#7F7E7F"/>
<path d="M930.354 551.11C927.034 551.11 924.164 550.004 921.778 547.826C919.288 545.614 918.044 542.848 918.044 539.564V527.189C918.044 523.905 919.288 521.14 921.778 518.928C924.164 516.784 927 515.713 930.354 515.713C933.881 515.713 936.786 516.888 939.068 519.239C941.35 521.589 942.56 524.528 942.664 528.088H937.062C936.751 526.118 936.059 524.493 934.987 523.214C933.743 521.762 932.221 521.002 930.354 521.002C928.486 521.002 926.861 521.728 925.582 523.214C924.302 524.666 923.68 526.394 923.68 528.33V538.493C923.68 540.429 924.302 542.157 925.582 543.609C926.861 545.061 928.452 545.821 930.354 545.821C932.256 545.821 933.777 545.095 934.987 543.609C936.059 542.33 936.751 540.705 937.062 538.735H942.664C942.526 542.295 941.35 545.268 939.068 547.584C936.786 549.935 933.881 551.11 930.354 551.11Z" fill="#7F7E7F"/>
<path d="M964.034 551.11C960.714 551.11 957.844 550.004 955.458 547.826C952.969 545.614 951.724 542.848 951.724 539.564V527.189C951.724 523.905 952.969 521.14 955.458 518.928C957.844 516.784 960.68 515.713 964.034 515.713C967.388 515.713 970.293 516.784 972.713 518.962C975.134 521.14 976.344 523.871 976.344 527.189V539.564C976.344 542.883 975.134 545.648 972.713 547.826C970.293 550.004 967.388 551.11 964.034 551.11ZM970.708 528.33C970.708 526.394 970.085 524.7 968.806 523.214C967.527 521.762 965.936 521.002 964.034 521.002C962.132 521.002 960.542 521.728 959.262 523.214C957.983 524.666 957.36 526.394 957.36 528.33V538.493C957.36 540.429 957.983 542.157 959.262 543.609C960.542 545.061 962.132 545.821 964.034 545.821C965.936 545.821 967.527 545.095 968.806 543.609C970.085 542.157 970.708 540.429 970.708 538.493V528.33Z" fill="#7F7E7F"/>
<path d="M1010.51 519.861C1013 517.096 1016.18 515.713 1020.02 515.713C1023.37 515.713 1026.28 516.784 1028.7 518.962C1031.12 521.14 1032.33 523.871 1032.33 527.189V550.972H1026.69V528.295C1026.69 526.36 1026.07 524.666 1024.79 523.179C1023.51 521.728 1021.92 520.967 1020.02 520.967C1018.12 520.967 1016.53 521.693 1015.25 523.179C1013.97 524.631 1013.34 526.36 1013.34 528.295V550.972H1007.71V528.295C1007.71 526.36 1007.08 524.666 1005.81 523.179C1004.53 521.728 1002.94 520.967 1001.03 520.967C999.132 520.967 997.541 521.693 996.262 523.179C994.982 524.631 994.36 526.36 994.36 528.295V550.972H988.723V528.295C988.723 526.083 987.963 524.286 986.476 522.972C984.954 521.658 983.087 520.967 980.839 520.967V515.678C985.508 515.678 989.104 517.061 991.559 519.826C994.049 517.061 997.23 515.678 1001.07 515.678C1004.91 515.678 1008.05 517.061 1010.54 519.826L1010.51 519.861Z" fill="#7F7E7F"/>
<path d="M1069.88 539.979C1069.88 543.298 1068.67 546.098 1066.25 548.31C1063.83 550.522 1060.92 551.629 1057.54 551.629C1055.15 551.629 1052.94 551.006 1050.9 549.796V561.619H1045.26V528.503C1045.26 526.291 1044.5 524.493 1043.01 523.145C1041.49 521.797 1039.62 521.14 1037.38 521.14V515.713C1042.04 515.713 1045.64 517.13 1048.1 519.93C1050.59 517.13 1053.77 515.713 1057.61 515.713C1060.96 515.713 1063.86 516.819 1066.28 519.031C1068.71 521.244 1069.92 524.044 1069.92 527.362V539.979H1069.88ZM1064.21 538.769V528.468C1064.21 526.533 1063.59 524.804 1062.31 523.318C1061.03 521.831 1059.44 521.071 1057.54 521.071C1055.63 521.071 1054.04 521.831 1052.76 523.318C1051.48 524.804 1050.86 526.533 1050.86 528.468V538.769C1050.86 540.74 1051.48 542.468 1052.7 543.885C1054.01 545.441 1055.6 546.201 1057.5 546.201C1059.4 546.201 1060.99 545.441 1062.27 543.955C1063.55 542.434 1064.18 540.74 1064.18 538.769H1064.21Z" fill="#7F7E7F"/>
<path d="M1101.42 546.858L1101.11 547.204C1098.96 549.796 1095.88 551.075 1091.87 551.075C1088.55 551.075 1085.65 549.969 1083.23 547.757C1080.77 545.545 1079.56 542.814 1079.56 539.53V527.155C1079.56 523.871 1080.81 521.105 1083.3 518.893C1085.68 516.75 1088.52 515.678 1091.87 515.678H1104.25V538.458C1104.25 540.671 1105.01 542.468 1106.5 543.782C1108.02 545.095 1109.85 545.787 1112.1 545.787V551.075C1107.43 551.075 1103.84 549.658 1101.38 546.858H1101.42ZM1098.62 521.002H1091.91C1089.97 521.002 1088.38 521.728 1087.14 523.214C1085.89 524.666 1085.23 526.394 1085.23 528.33V538.493C1085.23 540.429 1085.86 542.157 1087.14 543.609C1088.42 545.061 1090.01 545.821 1091.91 545.821C1093.81 545.821 1095.4 545.061 1096.78 543.574C1098.03 542.157 1098.65 540.463 1098.65 538.527V521.036L1098.62 521.002Z" fill="#7F7E7F"/>
<path d="M1124.83 519.757C1127.32 516.992 1130.5 515.609 1134.34 515.609C1137.69 515.609 1140.6 516.716 1143.02 518.893C1145.44 521.071 1146.65 523.836 1146.65 527.155V550.868H1141.01V528.261C1141.01 526.325 1140.39 524.632 1139.11 523.18C1137.83 521.728 1136.24 521.002 1134.34 521.002C1132.43 521.002 1130.84 521.728 1129.56 523.18C1128.29 524.632 1127.66 526.325 1127.66 528.261V550.868H1122.03V528.227C1122.03 526.014 1121.27 524.251 1119.78 522.938C1118.26 521.624 1116.39 520.967 1114.14 520.967V515.609C1118.81 515.609 1122.41 516.992 1124.86 519.757H1124.83Z" fill="#7F7E7F"/>
<path d="M1181.47 550.142C1181.47 553.703 1180.05 556.572 1177.25 558.784C1174.66 560.789 1171.54 561.826 1167.91 561.826V556.399C1170.02 556.399 1171.79 555.811 1173.27 554.67C1174.73 553.53 1175.59 551.905 1175.83 549.866L1174.41 550.522C1172.1 551.283 1170.37 551.663 1169.19 551.663C1165.87 551.663 1162.97 550.557 1160.55 548.345C1158.13 546.132 1156.88 543.332 1156.88 540.014V515.851H1162.52V538.873C1162.52 540.774 1163.14 542.468 1164.39 543.989C1165.63 545.51 1167.22 546.236 1169.12 546.236C1171.03 546.236 1172.72 545.475 1174.03 543.989C1175.24 542.572 1175.83 540.843 1175.83 538.873V515.851H1181.47V550.177V550.142Z" fill="#7F7E7F"/>
<path d="M561.29 550.074C559.284 551.353 557.037 551.975 554.616 551.975C551.262 551.975 548.357 550.869 545.937 548.622C543.516 546.375 542.306 543.609 542.306 540.256V527.708C542.306 524.39 543.516 521.59 545.971 519.378C548.426 517.165 551.296 516.059 554.616 516.059C557.936 516.059 560.84 517.165 563.261 519.378C565.681 521.59 566.926 524.355 566.926 527.708V549.278C566.926 551.525 567.652 553.358 569.139 554.671C570.626 556.019 572.528 556.676 574.81 556.676V562.103C571.11 562.103 567.998 561.101 565.405 559.061C562.638 556.849 561.255 553.945 561.255 550.385V550.039L561.29 550.074ZM561.29 528.918C561.29 526.948 560.667 525.219 559.423 523.733C558.178 522.247 556.587 521.521 554.651 521.521C552.714 521.521 551.124 522.247 549.879 523.733C548.634 525.219 548.011 526.948 548.011 528.918V539.185C548.011 541.155 548.634 542.849 549.844 544.301C551.124 545.856 552.714 546.617 554.651 546.617C556.587 546.617 558.212 545.856 559.457 544.301C560.702 542.884 561.29 541.19 561.29 539.185V528.918Z" fill="#7F7E7F"/>
<path d="M588.4 551.318C585.08 551.318 582.21 550.246 579.824 548.034C577.335 545.822 576.09 543.056 576.09 539.772V516.059H581.726V538.701C581.726 540.637 582.349 542.33 583.628 543.817C584.908 545.269 586.498 546.029 588.4 546.029C590.302 546.029 591.893 545.303 593.172 543.817C594.451 542.365 595.074 540.637 595.074 538.701V516.059H600.71V539.772C600.71 543.056 599.5 545.822 597.045 548C594.59 550.212 591.72 551.283 588.4 551.283V551.318Z" fill="#7F7E7F"/>
<path d="M633.215 547.1L632.903 547.446C630.76 550.039 627.682 551.318 623.671 551.318C620.386 551.318 617.516 550.212 615.061 548.034C612.605 545.821 611.361 543.091 611.361 539.807V527.432C611.361 524.182 612.605 521.417 615.095 519.17C617.516 517.027 620.351 515.955 623.671 515.955H636.05V538.735C636.05 540.947 636.811 542.745 638.367 544.093C639.785 545.407 641.652 546.063 643.9 546.063V551.352C639.231 551.352 635.67 549.935 633.215 547.135V547.1ZM630.448 521.244H623.74C621.804 521.244 620.247 521.97 618.968 523.456C617.723 524.908 617.066 526.636 617.066 528.572V538.735C617.066 540.671 617.689 542.365 618.968 543.851C620.213 545.303 621.804 546.063 623.74 546.063C625.676 546.063 627.302 545.303 628.616 543.817C629.86 542.434 630.483 540.74 630.483 538.77V521.279L630.448 521.244Z" fill="#7F7E7F"/>
<path d="M656.832 522.8L663.61 515.298H670.975L661.224 526.153L676.646 551.076H670.007L657.351 530.508L656.798 531.027V551.076H651.161V505.239H656.798V522.765L656.832 522.8Z" fill="#7F7E7F"/>
<path d="M687.573 536.246V538.735C687.573 540.671 688.196 542.365 689.475 543.851C690.754 545.303 692.345 546.063 694.247 546.063C696.149 546.063 697.67 545.337 698.881 543.851C699.953 542.537 700.644 540.913 700.955 538.977H706.557C706.453 542.503 705.243 545.441 702.961 547.792C700.679 550.142 697.774 551.318 694.247 551.318C690.927 551.318 688.057 550.246 685.671 548.034C683.182 545.821 681.937 543.056 681.937 539.772V527.397C681.937 524.113 683.182 521.347 685.671 519.135C688.057 516.992 690.893 515.92 694.247 515.92C697.601 515.92 700.471 517.027 702.892 519.204C705.347 521.382 706.557 524.113 706.557 527.397V536.177H687.573V536.246ZM700.886 528.572C700.886 526.636 700.264 524.943 698.984 523.456C697.705 522.004 696.114 521.244 694.212 521.244C692.31 521.244 690.72 521.97 689.44 523.456C688.161 524.908 687.539 526.636 687.539 528.572V530.957H700.852V528.572H700.886Z" fill="#7F7E7F"/>
<path d="M722.671 520C725.161 517.234 728.342 515.851 732.18 515.851C735.5 515.851 738.405 516.958 740.825 519.135C743.28 521.348 744.491 524.079 744.491 527.362V551.076H738.854V528.469C738.854 526.533 738.232 524.839 736.952 523.387C735.673 521.935 734.117 521.209 732.18 521.209C730.244 521.209 728.688 521.935 727.408 523.387C726.129 524.839 725.507 526.533 725.507 528.469V551.076H719.87V528.434C719.87 526.222 719.109 524.459 717.623 523.145C716.101 521.832 714.234 521.175 711.986 521.175V515.817C716.654 515.817 720.216 517.2 722.706 519.965L722.671 520Z" fill="#7F7E7F"/>
<path d="M760.812 517.269C762.818 516.024 765.065 515.437 767.486 515.437C770.805 515.437 773.71 516.543 776.131 518.755C778.551 520.968 779.796 523.733 779.796 527.086V539.634C779.796 542.952 778.586 545.752 776.165 547.999C773.745 550.246 770.84 551.352 767.486 551.352C764.132 551.352 761.227 550.246 758.806 547.999C756.386 545.752 755.176 542.987 755.176 539.668V505.412H760.812V517.303V517.269ZM774.125 528.261C774.125 526.291 773.503 524.563 772.258 523.076C771.013 521.59 769.422 520.864 767.486 520.864C765.549 520.864 763.959 521.59 762.714 523.076C761.469 524.563 760.847 526.291 760.847 528.261V538.528C760.847 540.498 761.469 542.192 762.679 543.644C763.959 545.199 765.549 545.96 767.486 545.96C769.422 545.96 771.047 545.199 772.292 543.644C773.503 542.227 774.125 540.533 774.125 538.528V528.261Z" fill="#7F7E7F"/>
<path d="M802.687 551.318C799.368 551.318 796.498 550.246 794.112 548.034C791.622 545.822 790.377 543.056 790.377 539.772V516.059H796.014V538.701C796.014 540.637 796.636 542.33 797.915 543.817C799.195 545.269 800.786 546.029 802.687 546.029C804.589 546.029 806.18 545.303 807.459 543.817C808.739 542.365 809.361 540.637 809.361 538.701V516.059H814.998V539.772C814.998 543.056 813.787 545.822 811.332 548C808.912 550.212 806.007 551.283 802.687 551.283V551.318Z" fill="#7F7E7F"/>
<path d="M844.84 528.261C844.84 526.291 844.252 524.632 843.041 523.284C841.866 521.935 840.275 521.279 838.269 521.279C836.61 521.279 835.088 521.866 833.74 523.007C832.391 524.148 831.734 525.53 831.734 527.155C831.734 528.261 832.149 529.16 832.944 529.886C833.74 530.612 834.708 530.958 835.814 530.958H840.759C843.422 530.958 845.704 531.856 847.64 533.619C849.577 535.382 850.545 537.56 850.545 540.187C850.545 543.436 849.335 546.098 846.88 548.207C844.425 550.315 841.554 551.352 838.235 551.352C834.915 551.352 831.838 550.177 829.452 547.792C827.1 545.407 825.925 542.469 825.925 539.012H831.699C831.699 540.982 832.287 542.641 833.497 543.955C834.708 545.303 836.298 545.96 838.235 545.96C839.964 545.96 841.52 545.407 842.799 544.335C844.113 543.264 844.77 541.881 844.77 540.153C844.77 539.046 844.355 538.113 843.525 537.387C842.696 536.627 841.727 536.281 840.621 536.281H835.676C833.048 536.281 830.766 535.417 828.829 533.654C826.893 531.926 825.925 529.748 825.925 527.19C825.925 523.975 827.204 521.279 829.728 519.101C832.149 517.027 834.984 516.024 838.235 516.024C841.797 516.024 844.736 517.2 847.053 519.516C849.369 521.866 850.545 524.805 850.545 528.365L844.77 528.296L844.84 528.261Z" fill="#7F7E7F"/>
<path d="M866.348 517.269C868.353 516.024 870.601 515.437 873.022 515.437C876.341 515.437 879.246 516.543 881.666 518.755C884.087 520.967 885.332 523.767 885.332 527.086V551.214H879.695V528.261C879.695 526.291 879.073 524.562 877.828 523.076C876.583 521.59 874.993 520.864 873.056 520.864C871.12 520.864 869.529 521.59 868.284 523.076C867.039 524.562 866.417 526.291 866.417 528.261V551.214H860.781V505.377H866.417V517.269H866.348Z" fill="#7F7E7F"/>
<path d="M619.66 507.797C617.412 507.797 614.611 508.73 613.055 510.044C611.499 511.358 610.185 512.982 609.701 515.748H604.963C604.963 512.083 606.347 508.869 608.387 506.276C610.6 503.476 614.957 502.163 618.518 502.163H636.154V507.797H619.625H619.66Z" fill="#068DFC"/>
</svg>
